<svg width="33" height="29" viewBox="0 0 33 29" fill="none" xmlns="http://www.w3.org/2000/svg">
<path d="M25.7336 28.5177C25.5853 28.6706 25.4091 28.7919 25.2151 28.8746C25.0212 28.9574 24.8133 29 24.6033 29C24.3933 29 24.1854 28.9574 23.9914 28.8746C23.7974 28.7919 23.6212 28.6706 23.4729 28.5177L20.0738 25.021C19.9254 24.8683 19.8076 24.687 19.7273 24.4875C19.647 24.288 19.6056 24.0741 19.6056 23.8582C19.6056 23.6422 19.647 23.4284 19.7273 23.2289C19.8076 23.0294 19.9254 22.8481 20.0738 22.6954C20.3736 22.387 20.7802 22.2137 21.2042 22.2137C21.4141 22.2137 21.622 22.2563 21.8159 22.3389C22.0099 22.4215 22.1861 22.5427 22.3345 22.6954L24.5953 25.021L30.2711 19.1822C30.4195 19.0295 30.5957 18.9084 30.7897 18.8257C30.9836 18.7431 31.1915 18.7006 31.4014 18.7006C31.6114 18.7006 31.8192 18.7431 32.0132 18.8257C32.2071 18.9084 32.3834 19.0295 32.5318 19.1822C32.6802 19.3349 32.798 19.5162 32.8783 19.7157C32.9587 19.9152 33 20.1291 33 20.345C33 20.561 32.9587 20.7748 32.8783 20.9743C32.798 21.1738 32.6802 21.3551 32.5318 21.5078L25.7336 28.5177ZM16.1617 26.39H3.20668C1.44301 26.39 0 24.9055 0 23.0912V3.29875C0 1.48444 1.44301 0 3.20668 0H28.8601C30.6238 0 32.0668 1.48444 32.0668 3.29875V14.3166C30.3569 13.4797 28.4688 13.1019 26.5786 13.2183C24.6885 13.3347 22.8577 13.9415 21.257 14.9822C19.6563 16.0229 18.3378 17.4635 17.4244 19.1699C16.511 20.8762 16.0325 22.7927 16.0334 24.7406C16.0334 25.3014 16.0815 25.8457 16.1617 26.39ZM15.1836 14.3001C15.6967 14.6299 16.3701 14.6299 16.8832 14.3001L28.2188 7.00983C28.3796 6.91699 28.5204 6.79156 28.6326 6.64112C28.7449 6.49069 28.8264 6.31838 28.872 6.13463C28.9177 5.95088 28.9267 5.7595 28.8984 5.57209C28.8701 5.38467 28.8051 5.20511 28.7074 5.04428C28.6097 4.88344 28.4812 4.74468 28.3299 4.63638C28.1785 4.52808 28.0074 4.4525 27.8268 4.41421C27.6462 4.37593 27.46 4.37573 27.2793 4.41364C27.0987 4.45154 26.9274 4.52676 26.7758 4.63474L16.0334 11.5456L5.29103 4.63474C5.13945 4.52676 4.96816 4.45154 4.7875 4.41364C4.60685 4.37573 4.4206 4.37593 4.24003 4.41421C4.05945 4.4525 3.88831 4.52808 3.73695 4.63638C3.58559 4.74468 3.45717 4.88344 3.35945 5.04428C3.26174 5.20511 3.19676 5.38467 3.16845 5.57209C3.14015 5.7595 3.1491 5.95088 3.19478 6.13463C3.24045 6.31838 3.3219 6.49069 3.43418 6.64112C3.54646 6.79156 3.68725 6.91699 3.84802 7.00983L15.1836 14.3001Z" fill="#3D3D3D"/>
</svg>
