<svg width="27" height="27" viewBox="0 0 27 27" fill="none" xmlns="http://www.w3.org/2000/svg">
<path d="M15.2247 9.83047L9.82668 15.2285C9.7002 15.3539 9.5998 15.5032 9.53129 15.6676C9.46278 15.8321 9.4275 16.0085 9.4275 16.1866C9.4275 16.3648 9.46278 16.5411 9.53129 16.7056C9.5998 16.87 9.7002 17.0193 9.82668 17.1448C9.95214 17.2712 10.1014 17.3716 10.2658 17.4401C10.4303 17.5087 10.6067 17.5439 10.7848 17.5439C10.963 17.5439 11.1394 17.5087 11.3038 17.4401C11.4683 17.3716 11.6175 17.2712 11.743 17.1448L17.141 11.7468C17.3951 11.4926 17.5378 11.148 17.5378 10.7886C17.5378 10.4292 17.3951 10.0846 17.141 9.83047C16.8868 9.57635 16.5422 9.43359 16.1828 9.43359C15.8234 9.43359 15.4788 9.57635 15.2247 9.83047Z" fill="#CA006C"/>
<path d="M13.8624 20.7748L12.1349 22.4887C11.1652 23.488 9.8615 24.0953 8.4726 24.1949C7.08369 24.2945 5.70673 23.8793 4.60435 23.0286C4.02171 22.5484 3.54625 21.9515 3.20869 21.2761C2.87112 20.6008 2.67897 19.8622 2.64463 19.108C2.61029 18.3538 2.73453 17.6008 3.00933 16.8976C3.28412 16.1945 3.70336 15.5567 4.23997 15.0256L6.15635 13.0958C6.28285 12.9703 6.38325 12.821 6.45176 12.6566C6.52028 12.4921 6.55555 12.3157 6.55555 12.1376C6.55555 11.9594 6.52028 11.783 6.45176 11.6186C6.38325 11.4541 6.28285 11.3048 6.15635 11.1794C6.03089 11.0529 5.88163 10.9525 5.71717 10.884C5.55272 10.8155 5.37632 10.7802 5.19816 10.7802C5.02 10.7802 4.84361 10.8155 4.67915 10.884C4.51469 10.9525 4.36543 11.0529 4.23997 11.1794L2.52602 12.9068C1.0822 14.305 0.194764 16.1796 0.0284716 18.1825C-0.13782 20.1855 0.42833 22.1807 1.62181 23.7978C2.33017 24.7168 3.22596 25.4745 4.24967 26.0206C5.27338 26.5668 6.40158 26.8888 7.55933 26.9654C8.71708 27.042 9.87788 26.8713 10.9646 26.4648C12.0513 26.0583 13.0391 25.4252 13.8624 24.6076L15.7788 22.6912C16.0329 22.437 16.1756 22.0924 16.1756 21.733C16.1756 21.3736 16.0329 21.0289 15.7788 20.7748C15.5246 20.5207 15.18 20.3779 14.8206 20.3779C14.4612 20.3779 14.1165 20.5207 13.8624 20.7748ZM23.8222 1.63795C22.1939 0.432069 20.1824 -0.139846 18.1632 0.0290354C16.1441 0.197917 14.2555 1.09604 12.8502 2.55566L11.3927 4.04018C11.2261 4.16129 11.0868 4.31603 10.9838 4.49438C10.8808 4.67274 10.8164 4.87074 10.7948 5.07556C10.7731 5.28038 10.7947 5.48746 10.8582 5.6834C10.9217 5.87933 11.0256 6.05975 11.1632 6.21298C11.2887 6.33947 11.438 6.43987 11.6024 6.50839C11.7669 6.5769 11.9433 6.61218 12.1214 6.61218C12.2996 6.61218 12.476 6.5769 12.6404 6.50839C12.8049 6.43987 12.9542 6.33947 13.0796 6.21298L14.8341 4.44505C15.7985 3.4414 17.1006 2.83075 18.4889 2.73105C19.8772 2.63135 21.2532 3.04967 22.3511 3.90522C22.9381 4.3854 23.4174 4.98387 23.7576 5.66163C24.0978 6.3394 24.2915 7.08125 24.3258 7.83884C24.3602 8.59643 24.2346 9.35277 23.9571 10.0586C23.6797 10.7644 23.2566 11.4038 22.7155 11.9351L20.7991 13.865C20.6726 13.9905 20.5722 14.1397 20.5037 14.3042C20.4352 14.4687 20.3999 14.645 20.3999 14.8232C20.3999 15.0014 20.4352 15.1778 20.5037 15.3422C20.5722 15.5067 20.6726 15.6559 20.7991 15.7814C20.9246 15.9079 21.0739 16.0083 21.2383 16.0768C21.4028 16.1453 21.5792 16.1806 21.7573 16.1806C21.9355 16.1806 22.1119 16.1453 22.2763 16.0768C22.4408 16.0083 22.5901 15.9079 22.7155 15.7814L24.6319 13.865C25.4472 13.0419 26.0784 12.055 26.4836 10.9696C26.8887 9.88417 27.0587 8.72506 26.9821 7.56903C26.9056 6.413 26.5843 5.28642 26.0395 4.26392C25.4947 3.24142 24.7389 2.34634 23.8222 1.63795Z" fill="#CA006C"/>
</svg>
